<?xml version="1.0" encoding="utf-8"?>
<!-- Generator: Adobe Illustrator 22.0.0, SVG Export Plug-In . SVG Version: 6.00 Build 0)  -->
<svg version="1.1" id="light" xmlns="http://www.w3.org/2000/svg" xmlns:xlink="http://www.w3.org/1999/xlink" x="0px" y="0px"
	 width="44.1px" height="44.5px" viewBox="0 0 44.1 44.5" style="enable-background:new 0 0 44.1 44.5;" xml:space="preserve">
<style type="text/css">
	.st0{fill:none;stroke:#F6402D;stroke-miterlimit:10;}
</style>
<g>
	<path class="st0" d="M21.1,44.5l0-6.6h3.7V22.6c0-1.5-0.8-2.8-2.2-3.4l-6.1-2.8l-4,3.8l-3.9-3.8l-6.1,2.8c-1.3,0.6-2.2,1.9-2.2,3.4
		v15.3h3.8l0,6.6"/>
	<path class="st0" d="M12.7,13.6L12.7,13.6c-3.1,0-5.7-2.4-6-5.5l-0.1-1c-0.3-3.5,2.5-6.6,6-6.6h0.2c3.6,0,6.3,3.1,6,6.6l-0.1,1
		C18.4,11.2,15.8,13.6,12.7,13.6z"/>
	<path class="st0" d="M39.8,44.5v-6.6h3.7V22.6c0-1.5-0.8-2.8-2.2-3.4l-6.1-2.8l-4,3.8l-3.9-3.8L26.1,17"/>
	<path class="st0" d="M31.4,13.6L31.4,13.6c-3.1,0-5.7-2.4-6-5.5l-0.1-1c-0.3-3.5,2.5-6.6,6-6.6h0.2c3.6,0,6.3,3.1,6,6.6l-0.1,1
		C37.1,11.2,34.5,13.6,31.4,13.6z"/>
</g>
</svg>
