<?xml version="1.0" encoding="utf-8"?>
<!-- Generator: Adobe Illustrator 22.0.0, SVG Export Plug-In . SVG Version: 6.00 Build 0)  -->
<svg version="1.1" id="Folder_x2C__files_x2C__archive"
	 xmlns="http://www.w3.org/2000/svg" xmlns:xlink="http://www.w3.org/1999/xlink" x="0px" y="0px" width="45.9px" height="39px"
	 viewBox="0 0 45.9 39" style="enable-background:new 0 0 45.9 39;" xml:space="preserve">
<style type="text/css">
	.st0{fill:#FBBC05;}
</style>
<path class="st0" d="M40.1,4.6H24.6l-4.3-4.3C20.1,0.1,19.8,0,19.5,0H5.7C2.6,0,0,2.6,0,5.7v27.5C0,36.4,2.6,39,5.7,39h34.4
	c3.2,0,5.7-2.6,5.7-5.7V10.3C45.9,7.2,43.3,4.6,40.1,4.6z M5.7,2.3H19l4.3,4.3c0.2,0.2,0.5,0.3,0.8,0.3h16.1c1.9,0,3.4,1.5,3.4,3.4
	v3.4H2.3v-8C2.3,3.8,3.8,2.3,5.7,2.3z M40.1,36.7H5.7c-1.9,0-3.4-1.5-3.4-3.4V16.1h41.3v17.2C43.6,35.2,42,36.7,40.1,36.7z"/>
</svg>
