<?xml version="1.0" encoding="utf-8"?>
<!-- Generator: Adobe Illustrator 22.0.0, SVG Export Plug-In . SVG Version: 6.00 Build 0)  -->
<svg version="1.1" id="light" xmlns="http://www.w3.org/2000/svg" xmlns:xlink="http://www.w3.org/1999/xlink" x="0px" y="0px"
	 width="29.7px" height="45px" viewBox="0 0 29.7 45" style="enable-background:new 0 0 29.7 45;" xml:space="preserve">
<style type="text/css">
	.st0{fill:none;stroke:#1469DD;stroke-miterlimit:10;}
</style>
<g>
	<path class="st0" d="M10.1,38.8v1.9c0,2.1,1.7,3.8,3.8,3.8h1.9c2.1,0,3.8-1.7,3.8-3.8v-1.9"/>
	<line class="st0" x1="8.2" y1="33" x2="21.5" y2="33"/>
	<path class="st0" d="M29.2,14.8c0-8.5-7.3-15.2-16-14.3C6.8,1.3,1.6,6.4,0.7,12.7C0,17.5,1.7,22,4.8,25.1c2.2,2.1,3.4,5.1,3.4,8.1
		l0,5.6h13.4l0-5.6c0-3,1.1-5.9,3.3-8C27.5,22.6,29.2,18.9,29.2,14.8z"/>
</g>
</svg>
